<?xml version="1.0" encoding="UTF-8" standalone="no"?>
<!DOCTYPE svg PUBLIC "-//W3C//DTD SVG 1.1//EN"
 "http://www.w3.org/Graphics/SVG/1.1/DTD/svg11.dtd">
<!-- Generated by graphviz version 2.36.0 (20140111.2315)
 -->
<!-- Title: zset Pages: 1 -->
<svg width="592pt" height="485pt"
 viewBox="0.00 0.00 592.00 485.00" xmlns="http://www.w3.org/2000/svg" xmlns:xlink="http://www.w3.org/1999/xlink">
<g id="graph0" class="graph" transform="scale(1 1) rotate(0) translate(4 481)">
<title>zset</title>
<polygon fill="white" stroke="none" points="-4,4 -4,-481 588,-481 588,4 -4,4"/>
<text text-anchor="middle" x="292" y="-22.8" font-family="Times,serif" font-size="14.00">在实际中，字典和跳跃表通过指针来共享元素的 member 和 score</text>
<text text-anchor="middle" x="292" y="-7.8" font-family="Times,serif" font-size="14.00">图中对每个元素都重复显示了一遍，只是为了展示的方便</text>
<!-- zset -->
<g id="node1" class="node"><title>zset</title>
<polygon fill="lightgrey" stroke="black" points="0,-301.5 0,-370.5 72,-370.5 72,-301.5 0,-301.5"/>
<text text-anchor="middle" x="36" y="-355.3" font-family="'/usr/share/fonts/truetype/wqy/wqy-microhei.ttc'" font-size="14.00">zset</text>
<polyline fill="none" stroke="black" points="0,-347.5 72,-347.5 "/>
<text text-anchor="middle" x="36" y="-332.3" font-family="'/usr/share/fonts/truetype/wqy/wqy-microhei.ttc'" font-size="14.00">dict</text>
<polyline fill="none" stroke="black" points="0,-324.5 72,-324.5 "/>
<text text-anchor="middle" x="36" y="-309.3" font-family="'/usr/share/fonts/truetype/wqy/wqy-microhei.ttc'" font-size="14.00">zskiplist</text>
</g>
<!-- skiplist -->
<g id="node2" class="node"><title>skiplist</title>
<polygon fill="#fadcad" stroke="black" points="108.5,-85 108.5,-253 195.5,-253 195.5,-85 108.5,-85"/>
<text text-anchor="middle" x="152" y="-237.8" font-family="'/usr/share/fonts/truetype/wqy/wqy-microhei.ttc'" font-size="14.00">zskipNode</text>
<polyline fill="none" stroke="black" points="108.5,-230 195.5,-230 "/>
<text text-anchor="middle" x="152" y="-214.8" font-family="'/usr/share/fonts/truetype/wqy/wqy-microhei.ttc'" font-size="14.00"> </text>
<polyline fill="none" stroke="black" points="108.5,-207 195.5,-207 "/>
<text text-anchor="middle" x="152" y="-191.8" font-family="'/usr/share/fonts/truetype/wqy/wqy-microhei.ttc'" font-size="14.00"> </text>
<polyline fill="none" stroke="black" points="108.5,-184 195.5,-184 "/>
<text text-anchor="middle" x="152" y="-168.8" font-family="'/usr/share/fonts/truetype/wqy/wqy-microhei.ttc'" font-size="14.00"> </text>
<polyline fill="none" stroke="black" points="108.5,-161 195.5,-161 "/>
<text text-anchor="middle" x="152" y="-145.8" font-family="'/usr/share/fonts/truetype/wqy/wqy-microhei.ttc'" font-size="14.00">score</text>
<text text-anchor="middle" x="152" y="-130.8" font-family="'/usr/share/fonts/truetype/wqy/wqy-microhei.ttc'" font-size="14.00"> NULL</text>
<polyline fill="none" stroke="black" points="108.5,-123 195.5,-123 "/>
<text text-anchor="middle" x="152" y="-107.8" font-family="'/usr/share/fonts/truetype/wqy/wqy-microhei.ttc'" font-size="14.00">robj</text>
<text text-anchor="middle" x="152" y="-92.8" font-family="'/usr/share/fonts/truetype/wqy/wqy-microhei.ttc'" font-size="14.00"> NULL</text>
</g>
<!-- zset&#45;&gt;skiplist -->
<g id="edge2" class="edge"><title>zset:zskiplist&#45;&gt;skiplist:head</title>
<path fill="none" stroke="black" stroke-width="2" d="M72,-313C103.234,-313 79.8036,-257.666 98.2256,-244.697"/>
<polygon fill="black" stroke="black" stroke-width="2" points="99.291,-248.034 108,-242 97.4293,-241.286 99.291,-248.034"/>
</g>
<!-- dict -->
<g id="node6" class="node"><title>dict</title>
<polygon fill="#a8e270" stroke="black" points="124,-327 124,-419 180,-419 180,-327 124,-327"/>
<text text-anchor="middle" x="152" y="-403.8" font-family="'/usr/share/fonts/truetype/wqy/wqy-microhei.ttc'" font-size="14.00">dictht</text>
<polyline fill="none" stroke="black" points="124,-396 180,-396 "/>
<text text-anchor="middle" x="152" y="-380.8" font-family="'/usr/share/fonts/truetype/wqy/wqy-microhei.ttc'" font-size="14.00">...</text>
<polyline fill="none" stroke="black" points="124,-373 180,-373 "/>
<text text-anchor="middle" x="152" y="-357.8" font-family="'/usr/share/fonts/truetype/wqy/wqy-microhei.ttc'" font-size="14.00">table</text>
<polyline fill="none" stroke="black" points="124,-350 180,-350 "/>
<text text-anchor="middle" x="152" y="-334.8" font-family="'/usr/share/fonts/truetype/wqy/wqy-microhei.ttc'" font-size="14.00">...</text>
</g>
<!-- zset&#45;&gt;dict -->
<g id="edge1" class="edge"><title>zset:dict&#45;&gt;dict:head</title>
<path fill="none" stroke="black" stroke-width="2" d="M72,-336C107.232,-336 88.6696,-394.118 112.974,-405.923"/>
<polygon fill="black" stroke="black" stroke-width="2" points="112.498,-409.398 123,-408 113.918,-402.544 112.498,-409.398"/>
</g>
<!-- six -->
<g id="node3" class="node"><title>six</title>
<polygon fill="#fadcad" stroke="black" points="236.5,-85 236.5,-253 323.5,-253 323.5,-85 236.5,-85"/>
<text text-anchor="middle" x="280" y="-237.8" font-family="'/usr/share/fonts/truetype/wqy/wqy-microhei.ttc'" font-size="14.00">zskipNode</text>
<polyline fill="none" stroke="black" points="236.5,-230 323.5,-230 "/>
<text text-anchor="middle" x="280" y="-214.8" font-family="'/usr/share/fonts/truetype/wqy/wqy-microhei.ttc'" font-size="14.00"> </text>
<polyline fill="none" stroke="black" points="236.5,-207 323.5,-207 "/>
<text text-anchor="middle" x="280" y="-191.8" font-family="'/usr/share/fonts/truetype/wqy/wqy-microhei.ttc'" font-size="14.00"> </text>
<polyline fill="none" stroke="black" points="236.5,-184 323.5,-184 "/>
<text text-anchor="middle" x="280" y="-168.8" font-family="'/usr/share/fonts/truetype/wqy/wqy-microhei.ttc'" font-size="14.00"> </text>
<polyline fill="none" stroke="black" points="236.5,-161 323.5,-161 "/>
<text text-anchor="middle" x="280" y="-145.8" font-family="'/usr/share/fonts/truetype/wqy/wqy-microhei.ttc'" font-size="14.00">score</text>
<text text-anchor="middle" x="280" y="-130.8" font-family="'/usr/share/fonts/truetype/wqy/wqy-microhei.ttc'" font-size="14.00"> 6</text>
<polyline fill="none" stroke="black" points="236.5,-123 323.5,-123 "/>
<text text-anchor="middle" x="280" y="-107.8" font-family="'/usr/share/fonts/truetype/wqy/wqy-microhei.ttc'" font-size="14.00">robj</text>
<text text-anchor="middle" x="280" y="-92.8" font-family="'/usr/share/fonts/truetype/wqy/wqy-microhei.ttc'" font-size="14.00"> x</text>
</g>
<!-- skiplist&#45;&gt;six -->
<g id="edge3" class="edge"><title>skiplist:3&#45;&gt;six:3</title>
<path fill="none" stroke="black" stroke-width="2" d="M196,-219C209.406,-219 215.036,-219 224.918,-219"/>
<polygon fill="black" stroke="black" stroke-width="2" points="225,-222.5 235,-219 225,-215.5 225,-222.5"/>
</g>
<!-- skiplist&#45;&gt;six -->
<g id="edge4" class="edge"><title>skiplist:2&#45;&gt;six:2</title>
<path fill="none" stroke="black" stroke-width="2" d="M196,-196C209.406,-196 215.036,-196 224.918,-196"/>
<polygon fill="black" stroke="black" stroke-width="2" points="225,-199.5 235,-196 225,-192.5 225,-199.5"/>
</g>
<!-- skiplist&#45;&gt;six -->
<g id="edge5" class="edge"><title>skiplist:1&#45;&gt;six:1</title>
<path fill="none" stroke="black" stroke-width="2" d="M196,-173C209.406,-173 215.036,-173 224.918,-173"/>
<polygon fill="black" stroke="black" stroke-width="2" points="225,-176.5 235,-173 225,-169.5 225,-176.5"/>
</g>
<!-- ten -->
<g id="node4" class="node"><title>ten</title>
<polygon fill="#fadcad" stroke="black" points="368.5,-38 368.5,-160 455.5,-160 455.5,-38 368.5,-38"/>
<text text-anchor="middle" x="412" y="-144.8" font-family="'/usr/share/fonts/truetype/wqy/wqy-microhei.ttc'" font-size="14.00">zskipNode</text>
<polyline fill="none" stroke="black" points="368.5,-137 455.5,-137 "/>
<text text-anchor="middle" x="412" y="-121.8" font-family="'/usr/share/fonts/truetype/wqy/wqy-microhei.ttc'" font-size="14.00"> </text>
<polyline fill="none" stroke="black" points="368.5,-114 455.5,-114 "/>
<text text-anchor="middle" x="412" y="-98.8" font-family="'/usr/share/fonts/truetype/wqy/wqy-microhei.ttc'" font-size="14.00">score</text>
<text text-anchor="middle" x="412" y="-83.8" font-family="'/usr/share/fonts/truetype/wqy/wqy-microhei.ttc'" font-size="14.00"> 10</text>
<polyline fill="none" stroke="black" points="368.5,-76 455.5,-76 "/>
<text text-anchor="middle" x="412" y="-60.8" font-family="'/usr/share/fonts/truetype/wqy/wqy-microhei.ttc'" font-size="14.00">robj</text>
<text text-anchor="middle" x="412" y="-45.8" font-family="'/usr/share/fonts/truetype/wqy/wqy-microhei.ttc'" font-size="14.00"> y</text>
</g>
<!-- six&#45;&gt;ten -->
<g id="edge6" class="edge"><title>six:1&#45;&gt;ten:1</title>
<path fill="none" stroke="black" stroke-width="2" d="M325,-173C348.856,-173 342.224,-138.918 357.029,-128.799"/>
<polygon fill="black" stroke="black" stroke-width="2" points="358.318,-132.073 367,-126 356.426,-125.333 358.318,-132.073"/>
</g>
<!-- fiften -->
<g id="node5" class="node"><title>fiften</title>
<polygon fill="#fadcad" stroke="black" points="496.5,-78 496.5,-246 583.5,-246 583.5,-78 496.5,-78"/>
<text text-anchor="middle" x="540" y="-230.8" font-family="'/usr/share/fonts/truetype/wqy/wqy-microhei.ttc'" font-size="14.00">zskipNode</text>
<polyline fill="none" stroke="black" points="496.5,-223 583.5,-223 "/>
<text text-anchor="middle" x="540" y="-207.8" font-family="'/usr/share/fonts/truetype/wqy/wqy-microhei.ttc'" font-size="14.00"> </text>
<polyline fill="none" stroke="black" points="496.5,-200 583.5,-200 "/>
<text text-anchor="middle" x="540" y="-184.8" font-family="'/usr/share/fonts/truetype/wqy/wqy-microhei.ttc'" font-size="14.00"> </text>
<polyline fill="none" stroke="black" points="496.5,-177 583.5,-177 "/>
<text text-anchor="middle" x="540" y="-161.8" font-family="'/usr/share/fonts/truetype/wqy/wqy-microhei.ttc'" font-size="14.00"> </text>
<polyline fill="none" stroke="black" points="496.5,-154 583.5,-154 "/>
<text text-anchor="middle" x="540" y="-138.8" font-family="'/usr/share/fonts/truetype/wqy/wqy-microhei.ttc'" font-size="14.00">score</text>
<text text-anchor="middle" x="540" y="-123.8" font-family="'/usr/share/fonts/truetype/wqy/wqy-microhei.ttc'" font-size="14.00"> 15</text>
<polyline fill="none" stroke="black" points="496.5,-116 583.5,-116 "/>
<text text-anchor="middle" x="540" y="-100.8" font-family="'/usr/share/fonts/truetype/wqy/wqy-microhei.ttc'" font-size="14.00">robj</text>
<text text-anchor="middle" x="540" y="-85.8" font-family="'/usr/share/fonts/truetype/wqy/wqy-microhei.ttc'" font-size="14.00"> z</text>
</g>
<!-- six&#45;&gt;fiften -->
<g id="edge7" class="edge"><title>six:2&#45;&gt;fiften:2</title>
<path fill="none" stroke="black" stroke-width="2" d="M325,-196C397.498,-196 418.041,-189.641 485.669,-189.045"/>
<polygon fill="black" stroke="black" stroke-width="2" points="486.015,-192.543 496,-189 485.985,-185.543 486.015,-192.543"/>
</g>
<!-- six&#45;&gt;fiften -->
<g id="edge8" class="edge"><title>six:3&#45;&gt;fiften:3</title>
<path fill="none" stroke="black" stroke-width="2" d="M325,-219C397.498,-219 418.041,-212.641 485.669,-212.045"/>
<polygon fill="black" stroke="black" stroke-width="2" points="486.015,-215.543 496,-212 485.985,-208.543 486.015,-215.543"/>
</g>
<!-- ten&#45;&gt;fiften -->
<g id="edge9" class="edge"><title>ten:1&#45;&gt;fiften:1</title>
<path fill="none" stroke="black" stroke-width="2" d="M457,-126C477.756,-126 473.713,-153.952 486.332,-163.123"/>
<polygon fill="black" stroke="black" stroke-width="2" points="485.417,-166.503 496,-166 487.413,-159.793 485.417,-166.503"/>
</g>
<!-- bucket -->
<g id="node7" class="node"><title>bucket</title>
<polygon fill="#95bbe3" stroke="black" points="232.5,-321.5 232.5,-428.5 327.5,-428.5 327.5,-321.5 232.5,-321.5"/>
<text text-anchor="middle" x="280" y="-413.3" font-family="'/usr/share/fonts/truetype/wqy/wqy-microhei.ttc'" font-size="14.00">dictEntry**</text>
<text text-anchor="middle" x="280" y="-398.3" font-family="'/usr/share/fonts/truetype/wqy/wqy-microhei.ttc'" font-size="14.00">(bucket)</text>
<polyline fill="none" stroke="black" points="232.5,-390.5 327.5,-390.5 "/>
<text text-anchor="middle" x="280" y="-375.3" font-family="'/usr/share/fonts/truetype/wqy/wqy-microhei.ttc'" font-size="14.00">0</text>
<polyline fill="none" stroke="black" points="232.5,-367.5 327.5,-367.5 "/>
<text text-anchor="middle" x="280" y="-352.3" font-family="'/usr/share/fonts/truetype/wqy/wqy-microhei.ttc'" font-size="14.00">1</text>
<polyline fill="none" stroke="black" points="232.5,-344.5 327.5,-344.5 "/>
<text text-anchor="middle" x="280" y="-329.3" font-family="'/usr/share/fonts/truetype/wqy/wqy-microhei.ttc'" font-size="14.00">2</text>
</g>
<!-- dict&#45;&gt;bucket -->
<g id="edge10" class="edge"><title>dict:table&#45;&gt;bucket:head</title>
<path fill="none" stroke="black" stroke-width="2" d="M181,-361C208.504,-361 202.857,-398.516 222.073,-407.895"/>
<polygon fill="black" stroke="black" stroke-width="2" points="221.491,-411.349 232,-410 222.944,-404.501 221.491,-411.349"/>
</g>
<!-- entry_x -->
<g id="node8" class="node"><title>entry_x</title>
<polygon fill="#f2f2f2" stroke="black" points="364.5,-415.5 364.5,-476.5 459.5,-476.5 459.5,-415.5 364.5,-415.5"/>
<text text-anchor="middle" x="412" y="-461.3" font-family="'/usr/share/fonts/truetype/wqy/wqy-microhei.ttc'" font-size="14.00">dictEntry</text>
<polyline fill="none" stroke="black" points="364.5,-453.5 459.5,-453.5 "/>
<text text-anchor="middle" x="385" y="-438.3" font-family="'/usr/share/fonts/truetype/wqy/wqy-microhei.ttc'" font-size="14.00">key</text>
<text text-anchor="middle" x="385" y="-423.3" font-family="'/usr/share/fonts/truetype/wqy/wqy-microhei.ttc'" font-size="14.00"> x</text>
<polyline fill="none" stroke="black" points="405.5,-415.5 405.5,-453.5 "/>
<text text-anchor="middle" x="432.5" y="-438.3" font-family="'/usr/share/fonts/truetype/wqy/wqy-microhei.ttc'" font-size="14.00">value</text>
<text text-anchor="middle" x="432.5" y="-423.3" font-family="'/usr/share/fonts/truetype/wqy/wqy-microhei.ttc'" font-size="14.00"> 6</text>
</g>
<!-- bucket&#45;&gt;entry_x -->
<g id="edge11" class="edge"><title>bucket:0&#45;&gt;entry_x:head</title>
<path fill="none" stroke="black" stroke-width="2" d="M328,-379C365.389,-379 330.877,-449.023 354.223,-462.7"/>
<polygon fill="black" stroke="black" stroke-width="2" points="353.464,-466.117 364,-465 355.067,-459.303 353.464,-466.117"/>
</g>
<!-- entry_y -->
<g id="node9" class="node"><title>entry_y</title>
<polygon fill="#f2f2f2" stroke="black" points="364.5,-335.5 364.5,-396.5 459.5,-396.5 459.5,-335.5 364.5,-335.5"/>
<text text-anchor="middle" x="412" y="-381.3" font-family="'/usr/share/fonts/truetype/wqy/wqy-microhei.ttc'" font-size="14.00">dictEntry</text>
<polyline fill="none" stroke="black" points="364.5,-373.5 459.5,-373.5 "/>
<text text-anchor="middle" x="385" y="-358.3" font-family="'/usr/share/fonts/truetype/wqy/wqy-microhei.ttc'" font-size="14.00">key</text>
<text text-anchor="middle" x="385" y="-343.3" font-family="'/usr/share/fonts/truetype/wqy/wqy-microhei.ttc'" font-size="14.00"> y</text>
<polyline fill="none" stroke="black" points="405.5,-335.5 405.5,-373.5 "/>
<text text-anchor="middle" x="432.5" y="-358.3" font-family="'/usr/share/fonts/truetype/wqy/wqy-microhei.ttc'" font-size="14.00">value</text>
<text text-anchor="middle" x="432.5" y="-343.3" font-family="'/usr/share/fonts/truetype/wqy/wqy-microhei.ttc'" font-size="14.00"> 10</text>
</g>
<!-- bucket&#45;&gt;entry_y -->
<g id="edge12" class="edge"><title>bucket:1&#45;&gt;entry_y:head</title>
<path fill="none" stroke="black" stroke-width="2" d="M328,-356C344.372,-356 344.465,-374.415 354.224,-381.896"/>
<polygon fill="black" stroke="black" stroke-width="2" points="353.41,-385.31 364,-385 355.528,-378.638 353.41,-385.31"/>
</g>
<!-- entry_z -->
<g id="node10" class="node"><title>entry_z</title>
<polygon fill="#f2f2f2" stroke="black" points="364.5,-255.5 364.5,-316.5 459.5,-316.5 459.5,-255.5 364.5,-255.5"/>
<text text-anchor="middle" x="412" y="-301.3" font-family="'/usr/share/fonts/truetype/wqy/wqy-microhei.ttc'" font-size="14.00">dictEntry</text>
<polyline fill="none" stroke="black" points="364.5,-293.5 459.5,-293.5 "/>
<text text-anchor="middle" x="385" y="-278.3" font-family="'/usr/share/fonts/truetype/wqy/wqy-microhei.ttc'" font-size="14.00">key</text>
<text text-anchor="middle" x="385" y="-263.3" font-family="'/usr/share/fonts/truetype/wqy/wqy-microhei.ttc'" font-size="14.00"> z</text>
<polyline fill="none" stroke="black" points="405.5,-255.5 405.5,-293.5 "/>
<text text-anchor="middle" x="432.5" y="-278.3" font-family="'/usr/share/fonts/truetype/wqy/wqy-microhei.ttc'" font-size="14.00">value</text>
<text text-anchor="middle" x="432.5" y="-263.3" font-family="'/usr/share/fonts/truetype/wqy/wqy-microhei.ttc'" font-size="14.00"> 15</text>
</g>
<!-- bucket&#45;&gt;entry_z -->
<g id="edge13" class="edge"><title>bucket:2&#45;&gt;entry_z:head</title>
<path fill="none" stroke="black" stroke-width="2" d="M328,-333C344.152,-333 344.551,-315.22 354.303,-307.996"/>
<polygon fill="black" stroke="black" stroke-width="2" points="355.479,-311.296 364,-305 353.412,-304.609 355.479,-311.296"/>
</g>
</g>
</svg>
