<?xml version="1.0" encoding="UTF-8" standalone="no"?>
<!DOCTYPE svg PUBLIC "-//W3C//DTD SVG 1.1//EN"
 "http://www.w3.org/Graphics/SVG/1.1/DTD/svg11.dtd">
<!-- Generated by graphviz version 2.36.0 (20140111.2315)
 -->
<!-- Title: blpop_decide_block_or_not Pages: 1 -->
<svg width="414pt" height="294pt"
 viewBox="0.00 0.00 414.00 294.00" xmlns="http://www.w3.org/2000/svg" xmlns:xlink="http://www.w3.org/1999/xlink">
<g id="graph0" class="graph" transform="scale(1 1) rotate(0) translate(4 290)">
<title>blpop_decide_block_or_not</title>
<polygon fill="white" stroke="none" points="-4,4 -4,-290 410,-290 410,4 -4,4"/>
<!-- call_blpop -->
<g id="node1" class="node"><title>call_blpop</title>
<polygon fill="#a8e270" stroke="none" points="192,-286 100,-286 100,-250 192,-250 192,-286"/>
<text text-anchor="middle" x="146" y="-264.3" font-family="'/usr/share/fonts/truetype/wqy/wqy-microhei.ttc'" font-size="14.00">BLPOP key</text>
</g>
<!-- wrong_type_or_not -->
<g id="node2" class="node"><title>wrong_type_or_not</title>
<polygon fill="#95bbe3" stroke="black" points="146,-212 -0.219079,-194 146,-176 292.219,-194 146,-212"/>
<text text-anchor="middle" x="146" y="-190.3" font-family="'/usr/share/fonts/truetype/wqy/wqy-microhei.ttc'" font-size="14.00">key 非空且不是列表？</text>
</g>
<!-- call_blpop&#45;&gt;wrong_type_or_not -->
<g id="edge1" class="edge"><title>call_blpop&#45;&gt;wrong_type_or_not</title>
<path fill="none" stroke="black" stroke-width="2" d="M146,-249.937C146,-241.807 146,-231.876 146,-222.705"/>
<polygon fill="black" stroke="black" stroke-width="2" points="149.5,-222.441 146,-212.441 142.5,-222.441 149.5,-222.441"/>
</g>
<!-- return_wrong_type -->
<g id="node3" class="node"><title>return_wrong_type</title>
<polygon fill="lightgrey" stroke="none" points="144.5,-124 43.5,-124 43.5,-88 144.5,-88 144.5,-124"/>
<text text-anchor="middle" x="94" y="-102.3" font-family="'/usr/share/fonts/truetype/wqy/wqy-microhei.ttc'" font-size="14.00">返回类型错误</text>
</g>
<!-- wrong_type_or_not&#45;&gt;return_wrong_type -->
<g id="edge2" class="edge"><title>wrong_type_or_not&#45;&gt;return_wrong_type</title>
<path fill="none" stroke="black" stroke-width="2" d="M136.219,-176.824C128.786,-164.531 118.408,-147.367 109.802,-133.134"/>
<polygon fill="black" stroke="black" stroke-width="2" points="112.62,-131.03 104.451,-124.284 106.63,-134.652 112.62,-131.03"/>
<text text-anchor="middle" x="132.5" y="-146.3" font-family="Times,serif" font-size="14.00">是</text>
</g>
<!-- key_empty_or_not -->
<g id="node4" class="node"><title>key_empty_or_not</title>
<polygon fill="#95bbe3" stroke="black" points="264,-124 162.839,-106 264,-88 365.161,-106 264,-124"/>
<text text-anchor="middle" x="264" y="-102.3" font-family="'/usr/share/fonts/truetype/wqy/wqy-microhei.ttc'" font-size="14.00">key 是否为空?</text>
</g>
<!-- wrong_type_or_not&#45;&gt;key_empty_or_not -->
<g id="edge3" class="edge"><title>wrong_type_or_not&#45;&gt;key_empty_or_not</title>
<path fill="none" stroke="black" stroke-width="2" d="M166.017,-178.411C185.521,-164.196 215.313,-142.484 236.926,-126.732"/>
<polygon fill="black" stroke="black" stroke-width="2" points="239.038,-129.524 245.058,-120.805 234.915,-123.867 239.038,-129.524"/>
<text text-anchor="middle" x="222.5" y="-146.3" font-family="Times,serif" font-size="14.00">否</text>
</g>
<!-- block_client -->
<g id="node5" class="node"><title>block_client</title>
<polygon fill="lightgrey" stroke="none" points="239.5,-36 152.5,-36 152.5,-0 239.5,-0 239.5,-36"/>
<text text-anchor="middle" x="196" y="-14.3" font-family="'/usr/share/fonts/truetype/wqy/wqy-microhei.ttc'" font-size="14.00">阻塞客户端</text>
</g>
<!-- key_empty_or_not&#45;&gt;block_client -->
<g id="edge4" class="edge"><title>key_empty_or_not&#45;&gt;block_client</title>
<path fill="none" stroke="black" stroke-width="2" d="M252.155,-90.0199C242.138,-77.3513 227.577,-58.9352 215.792,-44.0309"/>
<polygon fill="black" stroke="black" stroke-width="2" points="218.525,-41.8443 209.577,-36.1709 213.034,-46.1859 218.525,-41.8443"/>
<text text-anchor="middle" x="243.5" y="-58.3" font-family="Times,serif" font-size="14.00">是</text>
</g>
<!-- lpop -->
<g id="node6" class="node"><title>lpop</title>
<polygon fill="#a8e270" stroke="none" points="406.25,-36 257.75,-36 257.75,-0 406.25,-0 406.25,-36"/>
<text text-anchor="middle" x="332" y="-14.3" font-family="'/usr/share/fonts/truetype/wqy/wqy-microhei.ttc'" font-size="14.00">执行 LPOP key 命令</text>
</g>
<!-- key_empty_or_not&#45;&gt;lpop -->
<g id="edge5" class="edge"><title>key_empty_or_not&#45;&gt;lpop</title>
<path fill="none" stroke="black" stroke-width="2" d="M275.845,-90.0199C285.862,-77.3513 300.423,-58.9352 312.208,-44.0309"/>
<polygon fill="black" stroke="black" stroke-width="2" points="314.966,-46.1859 318.423,-36.1709 309.475,-41.8443 314.966,-46.1859"/>
<text text-anchor="middle" x="311.5" y="-58.3" font-family="Times,serif" font-size="14.00">否</text>
</g>
</g>
</svg>
