<?xml version="1.0" encoding="UTF-8" standalone="no"?>
<!DOCTYPE svg PUBLIC "-//W3C//DTD SVG 1.1//EN"
 "http://www.w3.org/Graphics/SVG/1.1/DTD/svg11.dtd">
<!-- Generated by graphviz version 2.36.0 (20140111.2315)
 -->
<!-- Title: datatype Pages: 1 -->
<svg width="532pt" height="382pt"
 viewBox="0.00 0.00 532.00 382.00" xmlns="http://www.w3.org/2000/svg" xmlns:xlink="http://www.w3.org/1999/xlink">
<g id="graph0" class="graph" transform="scale(1 1) rotate(0) translate(4 378)">
<title>datatype</title>
<polygon fill="white" stroke="none" points="-4,4 -4,-378 528,-378 528,4 -4,4"/>
<!-- redisObject -->
<g id="node1" class="node"><title>redisObject</title>
<polygon fill="#a8e270" stroke="none" points="94,-205 -7.10543e-15,-205 -7.10543e-15,-169 94,-169 94,-205"/>
<text text-anchor="middle" x="47" y="-183.3" font-family="'/usr/share/fonts/truetype/wqy/wqy-microhei.ttc'" font-size="14.00">redisObject</text>
</g>
<!-- REDIS_STRING -->
<g id="node2" class="node"><title>REDIS_STRING</title>
<polygon fill="#95bbe3" stroke="none" points="252,-318 130,-318 130,-280 252,-280 252,-318"/>
<text text-anchor="middle" x="191" y="-302.8" font-family="'/usr/share/fonts/truetype/wqy/wqy-microhei.ttc'" font-size="14.00">字符串</text>
<text text-anchor="middle" x="191" y="-287.8" font-family="'/usr/share/fonts/truetype/wqy/wqy-microhei.ttc'" font-size="14.00">REDIS_STRING</text>
</g>
<!-- redisObject&#45;&gt;REDIS_STRING -->
<g id="edge1" class="edge"><title>redisObject&#45;&gt;REDIS_STRING</title>
<path fill="none" stroke="black" stroke-width="2" d="M62.44,-205.274C77.7054,-223.685 103.239,-252.015 130,-271 131.828,-272.297 133.726,-273.559 135.672,-274.783"/>
<polygon fill="black" stroke="black" stroke-width="2" points="134.049,-277.888 144.45,-279.907 137.578,-271.843 134.049,-277.888"/>
</g>
<!-- REDIS_LIST -->
<g id="node3" class="node"><title>REDIS_LIST</title>
<polygon fill="#95bbe3" stroke="none" points="240,-262 142,-262 142,-224 240,-224 240,-262"/>
<text text-anchor="middle" x="191" y="-246.8" font-family="'/usr/share/fonts/truetype/wqy/wqy-microhei.ttc'" font-size="14.00">列表</text>
<text text-anchor="middle" x="191" y="-231.8" font-family="'/usr/share/fonts/truetype/wqy/wqy-microhei.ttc'" font-size="14.00">REDIS_LIST</text>
</g>
<!-- redisObject&#45;&gt;REDIS_LIST -->
<g id="edge2" class="edge"><title>redisObject&#45;&gt;REDIS_LIST</title>
<path fill="none" stroke="black" stroke-width="2" d="M93.7113,-205.027C105.987,-209.868 119.422,-215.167 132.259,-220.229"/>
<polygon fill="black" stroke="black" stroke-width="2" points="131.342,-223.629 141.928,-224.042 133.91,-217.117 131.342,-223.629"/>
</g>
<!-- REDIS_SET -->
<g id="node4" class="node"><title>REDIS_SET</title>
<polygon fill="#95bbe3" stroke="none" points="238.5,-94 143.5,-94 143.5,-56 238.5,-56 238.5,-94"/>
<text text-anchor="middle" x="191" y="-78.8" font-family="'/usr/share/fonts/truetype/wqy/wqy-microhei.ttc'" font-size="14.00">集合</text>
<text text-anchor="middle" x="191" y="-63.8" font-family="'/usr/share/fonts/truetype/wqy/wqy-microhei.ttc'" font-size="14.00">REDIS_SET</text>
</g>
<!-- redisObject&#45;&gt;REDIS_SET -->
<g id="edge3" class="edge"><title>redisObject&#45;&gt;REDIS_SET</title>
<path fill="none" stroke="black" stroke-width="2" d="M62.44,-168.726C77.7054,-150.315 103.239,-121.985 130,-103 131.828,-101.703 133.726,-100.441 135.672,-99.2166"/>
<polygon fill="black" stroke="black" stroke-width="2" points="137.578,-102.157 144.45,-94.0931 134.049,-96.1116 137.578,-102.157"/>
</g>
<!-- REDIS_ZSET -->
<g id="node5" class="node"><title>REDIS_ZSET</title>
<polygon fill="#95bbe3" stroke="none" points="243,-206 139,-206 139,-168 243,-168 243,-206"/>
<text text-anchor="middle" x="191" y="-190.8" font-family="'/usr/share/fonts/truetype/wqy/wqy-microhei.ttc'" font-size="14.00">有序集合</text>
<text text-anchor="middle" x="191" y="-175.8" font-family="'/usr/share/fonts/truetype/wqy/wqy-microhei.ttc'" font-size="14.00">REDIS_ZSET</text>
</g>
<!-- redisObject&#45;&gt;REDIS_ZSET -->
<g id="edge4" class="edge"><title>redisObject&#45;&gt;REDIS_ZSET</title>
<path fill="none" stroke="black" stroke-width="2" d="M94.1033,-187C105.127,-187 117.068,-187 128.658,-187"/>
<polygon fill="black" stroke="black" stroke-width="2" points="128.722,-190.5 138.722,-187 128.722,-183.5 128.722,-190.5"/>
</g>
<!-- REDIS_HASH -->
<g id="node6" class="node"><title>REDIS_HASH</title>
<polygon fill="#95bbe3" stroke="none" points="244.5,-150 137.5,-150 137.5,-112 244.5,-112 244.5,-150"/>
<text text-anchor="middle" x="191" y="-134.8" font-family="'/usr/share/fonts/truetype/wqy/wqy-microhei.ttc'" font-size="14.00">哈希表</text>
<text text-anchor="middle" x="191" y="-119.8" font-family="'/usr/share/fonts/truetype/wqy/wqy-microhei.ttc'" font-size="14.00">REDIS_HASH</text>
</g>
<!-- redisObject&#45;&gt;REDIS_HASH -->
<g id="edge5" class="edge"><title>redisObject&#45;&gt;REDIS_HASH</title>
<path fill="none" stroke="black" stroke-width="2" d="M93.7113,-168.973C105.858,-164.183 119.14,-158.945 131.853,-153.931"/>
<polygon fill="black" stroke="black" stroke-width="2" points="133.417,-157.077 141.436,-150.152 130.849,-150.565 133.417,-157.077"/>
</g>
<!-- REDIS_ENCODING_RAW -->
<g id="node7" class="node"><title>REDIS_ENCODING_RAW</title>
<polygon fill="#fadcad" stroke="none" points="499,-318 313,-318 313,-280 499,-280 499,-318"/>
<text text-anchor="middle" x="406" y="-302.8" font-family="'/usr/share/fonts/truetype/wqy/wqy-microhei.ttc'" font-size="14.00">字符串</text>
<text text-anchor="middle" x="406" y="-287.8" font-family="'/usr/share/fonts/truetype/wqy/wqy-microhei.ttc'" font-size="14.00">REDIS_ENCODING_RAW</text>
</g>
<!-- REDIS_STRING&#45;&gt;REDIS_ENCODING_RAW -->
<g id="edge6" class="edge"><title>REDIS_STRING&#45;&gt;REDIS_ENCODING_RAW</title>
<path fill="none" stroke="black" stroke-width="2" d="M252.183,-299C267.917,-299 285.327,-299 302.592,-299"/>
<polygon fill="black" stroke="black" stroke-width="2" points="302.728,-302.5 312.727,-299 302.727,-295.5 302.728,-302.5"/>
</g>
<!-- REDIS_ENCODING_INT -->
<g id="node8" class="node"><title>REDIS_ENCODING_INT</title>
<polygon fill="#fadcad" stroke="none" points="494.5,-374 317.5,-374 317.5,-336 494.5,-336 494.5,-374"/>
<text text-anchor="middle" x="406" y="-358.8" font-family="'/usr/share/fonts/truetype/wqy/wqy-microhei.ttc'" font-size="14.00">整数</text>
<text text-anchor="middle" x="406" y="-343.8" font-family="'/usr/share/fonts/truetype/wqy/wqy-microhei.ttc'" font-size="14.00">REDIS_ENCODING_INT</text>
</g>
<!-- REDIS_STRING&#45;&gt;REDIS_ENCODING_INT -->
<g id="edge7" class="edge"><title>REDIS_STRING&#45;&gt;REDIS_ENCODING_INT</title>
<path fill="none" stroke="black" stroke-width="2" d="M252.046,-317.003C263.932,-320.428 276.338,-323.906 288,-327 296.126,-329.156 304.588,-331.326 313.081,-333.453"/>
<polygon fill="black" stroke="black" stroke-width="2" points="312.498,-336.914 323.047,-335.926 314.184,-330.12 312.498,-336.914"/>
</g>
<!-- REDIS_ENCODING_LINKEDLIST -->
<g id="node10" class="node"><title>REDIS_ENCODING_LINKEDLIST</title>
<polygon fill="#fadcad" stroke="none" points="524,-262 288,-262 288,-224 524,-224 524,-262"/>
<text text-anchor="middle" x="406" y="-246.8" font-family="'/usr/share/fonts/truetype/wqy/wqy-microhei.ttc'" font-size="14.00">双端链表</text>
<text text-anchor="middle" x="406" y="-231.8" font-family="'/usr/share/fonts/truetype/wqy/wqy-microhei.ttc'" font-size="14.00">REDIS_ENCODING_LINKEDLIST</text>
</g>
<!-- REDIS_LIST&#45;&gt;REDIS_ENCODING_LINKEDLIST -->
<g id="edge8" class="edge"><title>REDIS_LIST&#45;&gt;REDIS_ENCODING_LINKEDLIST</title>
<path fill="none" stroke="black" stroke-width="2" d="M240.067,-243C251.507,-243 264.249,-243 277.441,-243"/>
<polygon fill="black" stroke="black" stroke-width="2" points="277.602,-246.5 287.602,-243 277.602,-239.5 277.602,-246.5"/>
</g>
<!-- REDIS_ENCODING_ZIPLIST -->
<g id="node11" class="node"><title>REDIS_ENCODING_ZIPLIST</title>
<polygon fill="#fadcad" stroke="none" points="509.5,-150 302.5,-150 302.5,-112 509.5,-112 509.5,-150"/>
<text text-anchor="middle" x="406" y="-134.8" font-family="'/usr/share/fonts/truetype/wqy/wqy-microhei.ttc'" font-size="14.00">压缩列表</text>
<text text-anchor="middle" x="406" y="-119.8" font-family="'/usr/share/fonts/truetype/wqy/wqy-microhei.ttc'" font-size="14.00">REDIS_ENCODING_ZIPLIST</text>
</g>
<!-- REDIS_LIST&#45;&gt;REDIS_ENCODING_ZIPLIST -->
<g id="edge9" class="edge"><title>REDIS_LIST&#45;&gt;REDIS_ENCODING_ZIPLIST</title>
<path fill="none" stroke="black" stroke-width="2" d="M239.759,-223.858C244.113,-221.201 248.278,-218.252 252,-215 274.283,-195.534 263.87,-176.124 288,-159 290.087,-157.519 292.241,-156.116 294.453,-154.787"/>
<polygon fill="black" stroke="black" stroke-width="2" points="296.124,-157.862 303.242,-150.014 292.784,-151.71 296.124,-157.862"/>
</g>
<!-- REDIS_ENCODING_HT -->
<g id="node9" class="node"><title>REDIS_ENCODING_HT</title>
<polygon fill="#fadcad" stroke="none" points="492.5,-94 319.5,-94 319.5,-56 492.5,-56 492.5,-94"/>
<text text-anchor="middle" x="406" y="-78.8" font-family="'/usr/share/fonts/truetype/wqy/wqy-microhei.ttc'" font-size="14.00">字典</text>
<text text-anchor="middle" x="406" y="-63.8" font-family="'/usr/share/fonts/truetype/wqy/wqy-microhei.ttc'" font-size="14.00">REDIS_ENCODING_HT</text>
</g>
<!-- REDIS_SET&#45;&gt;REDIS_ENCODING_HT -->
<g id="edge10" class="edge"><title>REDIS_SET&#45;&gt;REDIS_ENCODING_HT</title>
<path fill="none" stroke="black" stroke-width="2" d="M238.744,-75C259.517,-75 284.774,-75 309.265,-75"/>
<polygon fill="black" stroke="black" stroke-width="2" points="309.33,-78.5001 319.33,-75 309.33,-71.5001 309.33,-78.5001"/>
</g>
<!-- REDIS_ENCODING_INTSET -->
<g id="node12" class="node"><title>REDIS_ENCODING_INTSET</title>
<polygon fill="#fadcad" stroke="none" points="508,-38 304,-38 304,-0 508,-0 508,-38"/>
<text text-anchor="middle" x="406" y="-22.8" font-family="'/usr/share/fonts/truetype/wqy/wqy-microhei.ttc'" font-size="14.00">整数集合</text>
<text text-anchor="middle" x="406" y="-7.8" font-family="'/usr/share/fonts/truetype/wqy/wqy-microhei.ttc'" font-size="14.00">REDIS_ENCODING_INTSET</text>
</g>
<!-- REDIS_SET&#45;&gt;REDIS_ENCODING_INTSET -->
<g id="edge11" class="edge"><title>REDIS_SET&#45;&gt;REDIS_ENCODING_INTSET</title>
<path fill="none" stroke="black" stroke-width="2" d="M238.747,-60.8681C254.363,-56.2802 271.891,-51.2741 288,-47 296.126,-44.8441 304.588,-42.674 313.081,-40.5474"/>
<polygon fill="black" stroke="black" stroke-width="2" points="314.184,-43.88 323.047,-38.0744 312.498,-37.086 314.184,-43.88"/>
</g>
<!-- REDIS_ZSET&#45;&gt;REDIS_ENCODING_ZIPLIST -->
<g id="edge13" class="edge"><title>REDIS_ZSET&#45;&gt;REDIS_ENCODING_ZIPLIST</title>
<path fill="none" stroke="black" stroke-width="2" d="M243.187,-171.568C257.637,-167.348 273.401,-162.873 288,-159 296.126,-156.844 304.588,-154.674 313.081,-152.547"/>
<polygon fill="black" stroke="black" stroke-width="2" points="314.184,-155.88 323.047,-150.074 312.498,-149.086 314.184,-155.88"/>
</g>
<!-- REDIS_ENCODING_SKIPLIST -->
<g id="node13" class="node"><title>REDIS_ENCODING_SKIPLIST</title>
<polygon fill="#fadcad" stroke="none" points="513.5,-206 298.5,-206 298.5,-168 513.5,-168 513.5,-206"/>
<text text-anchor="middle" x="406" y="-190.8" font-family="'/usr/share/fonts/truetype/wqy/wqy-microhei.ttc'" font-size="14.00">跳跃表</text>
<text text-anchor="middle" x="406" y="-175.8" font-family="'/usr/share/fonts/truetype/wqy/wqy-microhei.ttc'" font-size="14.00">REDIS_ENCODING_SKIPLIST</text>
</g>
<!-- REDIS_ZSET&#45;&gt;REDIS_ENCODING_SKIPLIST -->
<g id="edge12" class="edge"><title>REDIS_ZSET&#45;&gt;REDIS_ENCODING_SKIPLIST</title>
<path fill="none" stroke="black" stroke-width="2" d="M243.019,-187C256.749,-187 272.187,-187 287.935,-187"/>
<polygon fill="black" stroke="black" stroke-width="2" points="288.315,-190.5 298.315,-187 288.315,-183.5 288.315,-190.5"/>
</g>
<!-- REDIS_HASH&#45;&gt;REDIS_ENCODING_HT -->
<g id="edge14" class="edge"><title>REDIS_HASH&#45;&gt;REDIS_ENCODING_HT</title>
<path fill="none" stroke="black" stroke-width="2" d="M244.686,-115.13C258.723,-111.04 273.904,-106.74 288,-103 296.126,-100.844 304.588,-98.674 313.081,-96.5474"/>
<polygon fill="black" stroke="black" stroke-width="2" points="314.184,-99.88 323.047,-94.0744 312.498,-93.086 314.184,-99.88"/>
</g>
<!-- REDIS_HASH&#45;&gt;REDIS_ENCODING_ZIPLIST -->
<g id="edge15" class="edge"><title>REDIS_HASH&#45;&gt;REDIS_ENCODING_ZIPLIST</title>
<path fill="none" stroke="black" stroke-width="2" d="M244.652,-131C259.139,-131 275.429,-131 291.931,-131"/>
<polygon fill="black" stroke="black" stroke-width="2" points="292.219,-134.5 302.219,-131 292.219,-127.5 292.219,-134.5"/>
</g>
</g>
</svg>
