<?xml version="1.0" encoding="UTF-8" standalone="no"?>
<!DOCTYPE svg PUBLIC "-//W3C//DTD SVG 1.1//EN"
 "http://www.w3.org/Graphics/SVG/1.1/DTD/svg11.dtd">
<!-- Generated by graphviz version 2.36.0 (20140111.2315)
 -->
<!-- Title: redis_string Pages: 1 -->
<svg width="517pt" height="264pt"
 viewBox="0.00 0.00 517.00 264.00" xmlns="http://www.w3.org/2000/svg" xmlns:xlink="http://www.w3.org/1999/xlink">
<g id="graph0" class="graph" transform="scale(1 1) rotate(0) translate(4 260)">
<title>redis_string</title>
<polygon fill="white" stroke="none" points="-4,4 -4,-260 513,-260 513,4 -4,4"/>
<!-- REDIS_STRING -->
<g id="node1" class="node"><title>REDIS_STRING</title>
<polygon fill="#95bbe3" stroke="none" points="382,-256 260,-256 260,-218 382,-218 382,-256"/>
<text text-anchor="middle" x="321" y="-240.8" font-family="'/usr/share/fonts/truetype/wqy/wqy-microhei.ttc'" font-size="14.00">字符串</text>
<text text-anchor="middle" x="321" y="-225.8" font-family="'/usr/share/fonts/truetype/wqy/wqy-microhei.ttc'" font-size="14.00">REDIS_STRING</text>
</g>
<!-- REDIS_ENCODING_RAW -->
<g id="node2" class="node"><title>REDIS_ENCODING_RAW</title>
<polygon fill="#fadcad" stroke="none" points="314.5,-182 129.5,-182 129.5,-144 314.5,-144 314.5,-182"/>
<text text-anchor="middle" x="222" y="-166.8" font-family="'/usr/share/fonts/truetype/wqy/wqy-microhei.ttc'" font-size="14.00">字符串</text>
<text text-anchor="middle" x="222" y="-151.8" font-family="'/usr/share/fonts/truetype/wqy/wqy-microhei.ttc'" font-size="14.00">REDIS_ENCODING_RAW</text>
</g>
<!-- REDIS_STRING&#45;&gt;REDIS_ENCODING_RAW -->
<g id="edge1" class="edge"><title>REDIS_STRING&#45;&gt;REDIS_ENCODING_RAW</title>
<path fill="none" stroke="black" stroke-width="2" d="M296.018,-217.831C283.707,-208.878 268.689,-197.956 255.406,-188.295"/>
<polygon fill="black" stroke="black" stroke-width="2" points="257.12,-185.214 246.974,-182.163 253.003,-190.875 257.12,-185.214"/>
</g>
<!-- REDIS_ENCODING_INT -->
<g id="node3" class="node"><title>REDIS_ENCODING_INT</title>
<polygon fill="#fadcad" stroke="none" points="509.25,-182 332.75,-182 332.75,-144 509.25,-144 509.25,-182"/>
<text text-anchor="middle" x="421" y="-166.8" font-family="'/usr/share/fonts/truetype/wqy/wqy-microhei.ttc'" font-size="14.00">整数</text>
<text text-anchor="middle" x="421" y="-151.8" font-family="'/usr/share/fonts/truetype/wqy/wqy-microhei.ttc'" font-size="14.00">REDIS_ENCODING_INT</text>
</g>
<!-- REDIS_STRING&#45;&gt;REDIS_ENCODING_INT -->
<g id="edge2" class="edge"><title>REDIS_STRING&#45;&gt;REDIS_ENCODING_INT</title>
<path fill="none" stroke="black" stroke-width="2" d="M346.234,-217.831C358.788,-208.793 374.128,-197.748 387.639,-188.02"/>
<polygon fill="black" stroke="black" stroke-width="2" points="389.704,-190.846 395.774,-182.163 385.613,-185.166 389.704,-190.846"/>
</g>
<!-- sdshdr -->
<g id="node4" class="node"><title>sdshdr</title>
<polygon fill="lightgrey" stroke="none" points="252.5,-108 191.5,-108 191.5,-72 252.5,-72 252.5,-108"/>
<text text-anchor="middle" x="222" y="-86.3" font-family="'/usr/share/fonts/truetype/wqy/wqy-microhei.ttc'" font-size="14.00">sdshdr</text>
</g>
<!-- REDIS_ENCODING_RAW&#45;&gt;sdshdr -->
<g id="edge3" class="edge"><title>REDIS_ENCODING_RAW&#45;&gt;sdshdr</title>
<path fill="none" stroke="black" stroke-width="2" d="M222,-143.716C222,-135.973 222,-126.789 222,-118.274"/>
<polygon fill="black" stroke="black" stroke-width="2" points="225.5,-118.003 222,-108.003 218.5,-118.003 225.5,-118.003"/>
</g>
<!-- long -->
<g id="node5" class="node"><title>long</title>
<polygon fill="lightgrey" stroke="none" points="448,-108 394,-108 394,-72 448,-72 448,-108"/>
<text text-anchor="middle" x="421" y="-86.3" font-family="'/usr/share/fonts/truetype/wqy/wqy-microhei.ttc'" font-size="14.00">long</text>
</g>
<!-- REDIS_ENCODING_INT&#45;&gt;long -->
<g id="edge4" class="edge"><title>REDIS_ENCODING_INT&#45;&gt;long</title>
<path fill="none" stroke="black" stroke-width="2" d="M421,-143.716C421,-135.973 421,-126.789 421,-118.274"/>
<polygon fill="black" stroke="black" stroke-width="2" points="424.5,-118.003 421,-108.003 417.5,-118.003 424.5,-118.003"/>
</g>
<!-- sds -->
<g id="node6" class="node"><title>sds</title>
<polygon fill="lightgrey" stroke="none" points="80,-36 0,-36 0,-0 80,-0 80,-36"/>
<text text-anchor="middle" x="40" y="-14.3" font-family="'/usr/share/fonts/truetype/wqy/wqy-microhei.ttc'" font-size="14.00">sds/char*</text>
</g>
<!-- sdshdr&#45;&gt;sds -->
<g id="edge5" class="edge"><title>sdshdr&#45;&gt;sds</title>
<path fill="none" stroke="black" stroke-width="2" d="M191.126,-77.1255C163.462,-66.4852 122.378,-50.6838 90.0264,-38.2409"/>
<polygon fill="black" stroke="black" stroke-width="2" points="90.881,-34.8197 80.2911,-34.4966 88.3681,-41.3532 90.881,-34.8197"/>
</g>
<!-- long_long -->
<g id="node7" class="node"><title>long_long</title>
<polygon fill="lightgrey" stroke="none" points="178,-36 98,-36 98,-0 178,-0 178,-36"/>
<text text-anchor="middle" x="138" y="-14.3" font-family="'/usr/share/fonts/truetype/wqy/wqy-microhei.ttc'" font-size="14.00">long long</text>
</g>
<!-- sdshdr&#45;&gt;long_long -->
<g id="edge6" class="edge"><title>sdshdr&#45;&gt;long_long</title>
<path fill="none" stroke="black" stroke-width="2" d="M201.236,-71.6966C190.759,-62.9655 177.889,-52.2405 166.5,-42.7503"/>
<polygon fill="black" stroke="black" stroke-width="2" points="168.448,-39.8174 158.525,-36.1043 163.967,-45.195 168.448,-39.8174"/>
</g>
<!-- double -->
<g id="node8" class="node"><title>double</title>
<polygon fill="lightgrey" stroke="none" points="257.5,-36 196.5,-36 196.5,-0 257.5,-0 257.5,-36"/>
<text text-anchor="middle" x="227" y="-14.3" font-family="'/usr/share/fonts/truetype/wqy/wqy-microhei.ttc'" font-size="14.00">double</text>
</g>
<!-- sdshdr&#45;&gt;double -->
<g id="edge7" class="edge"><title>sdshdr&#45;&gt;double</title>
<path fill="none" stroke="black" stroke-width="2" d="M223.236,-71.6966C223.787,-63.9827 224.449,-54.7125 225.063,-46.1124"/>
<polygon fill="black" stroke="black" stroke-width="2" points="228.557,-46.3283 225.778,-36.1043 221.575,-45.8295 228.557,-46.3283"/>
</g>
<!-- long_double -->
<g id="node9" class="node"><title>long_double</title>
<polygon fill="lightgrey" stroke="none" points="372,-36 276,-36 276,-0 372,-0 372,-36"/>
<text text-anchor="middle" x="324" y="-14.3" font-family="'/usr/share/fonts/truetype/wqy/wqy-microhei.ttc'" font-size="14.00">long double</text>
</g>
<!-- sdshdr&#45;&gt;long_double -->
<g id="edge8" class="edge"><title>sdshdr&#45;&gt;long_double</title>
<path fill="none" stroke="black" stroke-width="2" d="M246.952,-71.8761C260.042,-62.8931 276.26,-51.7625 290.436,-42.0341"/>
<polygon fill="black" stroke="black" stroke-width="2" points="292.687,-44.734 298.952,-36.1898 288.726,-38.9624 292.687,-44.734"/>
</g>
<!-- long_type -->
<g id="node10" class="node"><title>long_type</title>
<polygon fill="lightgrey" stroke="none" points="448,-36 394,-36 394,-0 448,-0 448,-36"/>
<text text-anchor="middle" x="421" y="-14.3" font-family="'/usr/share/fonts/truetype/wqy/wqy-microhei.ttc'" font-size="14.00">long</text>
</g>
<!-- long&#45;&gt;long_type -->
<g id="edge9" class="edge"><title>long&#45;&gt;long_type</title>
<path fill="none" stroke="black" stroke-width="2" d="M421,-71.6966C421,-63.9827 421,-54.7125 421,-46.1124"/>
<polygon fill="black" stroke="black" stroke-width="2" points="424.5,-46.1043 421,-36.1043 417.5,-46.1044 424.5,-46.1043"/>
</g>
</g>
</svg>
