<?xml version="1.0" encoding="UTF-8" standalone="no"?>
<!DOCTYPE svg PUBLIC "-//W3C//DTD SVG 1.1//EN"
 "http://www.w3.org/Graphics/SVG/1.1/DTD/svg11.dtd">
<!-- Generated by graphviz version 2.36.0 (20140111.2315)
 -->
<!-- Title: hash_table_example Pages: 1 -->
<svg width="438pt" height="284pt"
 viewBox="0.00 0.00 438.00 284.00" xmlns="http://www.w3.org/2000/svg" xmlns:xlink="http://www.w3.org/1999/xlink">
<g id="graph0" class="graph" transform="scale(1 1) rotate(0) translate(4 280)">
<title>hash_table_example</title>
<polygon fill="white" stroke="none" points="-4,4 -4,-280 434,-280 434,4 -4,4"/>
<!-- ht1 -->
<g id="node1" class="node"><title>ht1</title>
<polygon fill="#a8e270" stroke="black" points="0.5,-138.5 0.5,-253.5 93.5,-253.5 93.5,-138.5 0.5,-138.5"/>
<text text-anchor="middle" x="47" y="-238.3" font-family="'/usr/share/fonts/truetype/wqy/wqy-microhei.ttc'" font-size="14.00">dictht</text>
<polyline fill="none" stroke="black" points="0.5,-230.5 93.5,-230.5 "/>
<text text-anchor="middle" x="47" y="-215.3" font-family="'/usr/share/fonts/truetype/wqy/wqy-microhei.ttc'" font-size="14.00">table</text>
<polyline fill="none" stroke="black" points="0.5,-207.5 93.5,-207.5 "/>
<text text-anchor="middle" x="47" y="-192.3" font-family="'/usr/share/fonts/truetype/wqy/wqy-microhei.ttc'" font-size="14.00">size:4</text>
<polyline fill="none" stroke="black" points="0.5,-184.5 93.5,-184.5 "/>
<text text-anchor="middle" x="47" y="-169.3" font-family="'/usr/share/fonts/truetype/wqy/wqy-microhei.ttc'" font-size="14.00">sizemask:3</text>
<polyline fill="none" stroke="black" points="0.5,-161.5 93.5,-161.5 "/>
<text text-anchor="middle" x="47" y="-146.3" font-family="'/usr/share/fonts/truetype/wqy/wqy-microhei.ttc'" font-size="14.00">used:3</text>
</g>
<!-- bucket -->
<g id="node2" class="node"><title>bucket</title>
<polygon fill="#95bbe3" stroke="black" points="130.5,-108 130.5,-238 225.5,-238 225.5,-108 130.5,-108"/>
<text text-anchor="middle" x="178" y="-222.8" font-family="'/usr/share/fonts/truetype/wqy/wqy-microhei.ttc'" font-size="14.00">dictEntry**</text>
<text text-anchor="middle" x="178" y="-207.8" font-family="'/usr/share/fonts/truetype/wqy/wqy-microhei.ttc'" font-size="14.00">(bucket)</text>
<polyline fill="none" stroke="black" points="130.5,-200 225.5,-200 "/>
<text text-anchor="middle" x="178" y="-184.8" font-family="'/usr/share/fonts/truetype/wqy/wqy-microhei.ttc'" font-size="14.00">0</text>
<polyline fill="none" stroke="black" points="130.5,-177 225.5,-177 "/>
<text text-anchor="middle" x="178" y="-161.8" font-family="'/usr/share/fonts/truetype/wqy/wqy-microhei.ttc'" font-size="14.00">1</text>
<polyline fill="none" stroke="black" points="130.5,-154 225.5,-154 "/>
<text text-anchor="middle" x="178" y="-138.8" font-family="'/usr/share/fonts/truetype/wqy/wqy-microhei.ttc'" font-size="14.00">2</text>
<polyline fill="none" stroke="black" points="130.5,-131 225.5,-131 "/>
<text text-anchor="middle" x="178" y="-115.8" font-family="'/usr/share/fonts/truetype/wqy/wqy-microhei.ttc'" font-size="14.00">3</text>
</g>
<!-- ht1&#45;&gt;bucket -->
<g id="edge1" class="edge"><title>ht1:table&#45;&gt;bucket:head</title>
<path fill="none" stroke="black" stroke-width="2" d="M94,-219C106,-219 111.25,-219 119.875,-219"/>
<polygon fill="black" stroke="black" stroke-width="2" points="120,-222.5 130,-219 120,-215.5 120,-222.5"/>
</g>
<!-- pair_1 -->
<g id="node3" class="node"><title>pair_1</title>
<polygon fill="#fadcad" stroke="black" points="262.5,-214.5 262.5,-275.5 429.5,-275.5 429.5,-214.5 262.5,-214.5"/>
<text text-anchor="middle" x="346" y="-260.3" font-family="'/usr/share/fonts/truetype/wqy/wqy-microhei.ttc'" font-size="14.00">dictEntry</text>
<polyline fill="none" stroke="black" points="262.5,-252.5 429.5,-252.5 "/>
<text text-anchor="middle" x="292" y="-237.3" font-family="'/usr/share/fonts/truetype/wqy/wqy-microhei.ttc'" font-size="14.00">key</text>
<text text-anchor="middle" x="292" y="-222.3" font-family="'/usr/share/fonts/truetype/wqy/wqy-microhei.ttc'" font-size="14.00">elem1</text>
<polyline fill="none" stroke="black" points="321.5,-214.5 321.5,-252.5 "/>
<text text-anchor="middle" x="348.5" y="-237.3" font-family="'/usr/share/fonts/truetype/wqy/wqy-microhei.ttc'" font-size="14.00">value</text>
<text text-anchor="middle" x="348.5" y="-222.3" font-family="'/usr/share/fonts/truetype/wqy/wqy-microhei.ttc'" font-size="14.00">NULL</text>
<polyline fill="none" stroke="black" points="375.5,-214.5 375.5,-252.5 "/>
<text text-anchor="middle" x="402.5" y="-237.3" font-family="'/usr/share/fonts/truetype/wqy/wqy-microhei.ttc'" font-size="14.00">next</text>
<text text-anchor="middle" x="402.5" y="-222.3" font-family="'/usr/share/fonts/truetype/wqy/wqy-microhei.ttc'" font-size="14.00">NULL</text>
</g>
<!-- bucket&#45;&gt;pair_1 -->
<g id="edge2" class="edge"><title>bucket:table0&#45;&gt;pair_1:head</title>
<path fill="none" stroke="black" stroke-width="2" d="M226,-189C258.786,-189 232.662,-247.97 252.101,-261.331"/>
<polygon fill="black" stroke="black" stroke-width="2" points="251.434,-264.776 262,-264 253.256,-258.017 251.434,-264.776"/>
</g>
<!-- pair_2 -->
<g id="node4" class="node"><title>pair_2</title>
<polygon fill="#fadcad" stroke="black" points="262.5,-80.5 262.5,-141.5 429.5,-141.5 429.5,-80.5 262.5,-80.5"/>
<text text-anchor="middle" x="346" y="-126.3" font-family="'/usr/share/fonts/truetype/wqy/wqy-microhei.ttc'" font-size="14.00">dictEntry</text>
<polyline fill="none" stroke="black" points="262.5,-118.5 429.5,-118.5 "/>
<text text-anchor="middle" x="292" y="-103.3" font-family="'/usr/share/fonts/truetype/wqy/wqy-microhei.ttc'" font-size="14.00">key</text>
<text text-anchor="middle" x="292" y="-88.3" font-family="'/usr/share/fonts/truetype/wqy/wqy-microhei.ttc'" font-size="14.00">elem2</text>
<polyline fill="none" stroke="black" points="321.5,-80.5 321.5,-118.5 "/>
<text text-anchor="middle" x="348.5" y="-103.3" font-family="'/usr/share/fonts/truetype/wqy/wqy-microhei.ttc'" font-size="14.00">value</text>
<text text-anchor="middle" x="348.5" y="-88.3" font-family="'/usr/share/fonts/truetype/wqy/wqy-microhei.ttc'" font-size="14.00">NULL</text>
<polyline fill="none" stroke="black" points="375.5,-80.5 375.5,-118.5 "/>
<text text-anchor="middle" x="402.5" y="-103.3" font-family="'/usr/share/fonts/truetype/wqy/wqy-microhei.ttc'" font-size="14.00">next</text>
<text text-anchor="middle" x="402.5" y="-88.3" font-family="'/usr/share/fonts/truetype/wqy/wqy-microhei.ttc'" font-size="14.00">NULL</text>
</g>
<!-- bucket&#45;&gt;pair_2 -->
<g id="edge4" class="edge"><title>bucket:table2&#45;&gt;pair_2:head</title>
<path fill="none" stroke="black" stroke-width="2" d="M226,-142C238.781,-142 243.179,-135.109 251.9,-131.771"/>
<polygon fill="black" stroke="black" stroke-width="2" points="252.755,-135.174 262,-130 251.546,-128.279 252.755,-135.174"/>
</g>
<!-- pair_3 -->
<g id="node5" class="node"><title>pair_3</title>
<polygon fill="#fadcad" stroke="black" points="262.5,-0.5 262.5,-61.5 429.5,-61.5 429.5,-0.5 262.5,-0.5"/>
<text text-anchor="middle" x="346" y="-46.3" font-family="'/usr/share/fonts/truetype/wqy/wqy-microhei.ttc'" font-size="14.00">dictEntry</text>
<polyline fill="none" stroke="black" points="262.5,-38.5 429.5,-38.5 "/>
<text text-anchor="middle" x="292" y="-23.3" font-family="'/usr/share/fonts/truetype/wqy/wqy-microhei.ttc'" font-size="14.00">key</text>
<text text-anchor="middle" x="292" y="-8.3" font-family="'/usr/share/fonts/truetype/wqy/wqy-microhei.ttc'" font-size="14.00">elem3</text>
<polyline fill="none" stroke="black" points="321.5,-0.5 321.5,-38.5 "/>
<text text-anchor="middle" x="348.5" y="-23.3" font-family="'/usr/share/fonts/truetype/wqy/wqy-microhei.ttc'" font-size="14.00">value</text>
<text text-anchor="middle" x="348.5" y="-8.3" font-family="'/usr/share/fonts/truetype/wqy/wqy-microhei.ttc'" font-size="14.00">NULL</text>
<polyline fill="none" stroke="black" points="375.5,-0.5 375.5,-38.5 "/>
<text text-anchor="middle" x="402.5" y="-23.3" font-family="'/usr/share/fonts/truetype/wqy/wqy-microhei.ttc'" font-size="14.00">next</text>
<text text-anchor="middle" x="402.5" y="-8.3" font-family="'/usr/share/fonts/truetype/wqy/wqy-microhei.ttc'" font-size="14.00">NULL</text>
</g>
<!-- bucket&#45;&gt;pair_3 -->
<g id="edge5" class="edge"><title>bucket:table3&#45;&gt;pair_3:head</title>
<path fill="none" stroke="black" stroke-width="2" d="M226,-119C256.266,-119 234.646,-66.1719 251.941,-52.9648"/>
<polygon fill="black" stroke="black" stroke-width="2" points="253.397,-56.1844 262,-50 251.418,-49.47 253.397,-56.1844"/>
</g>
<!-- null1 -->
<g id="node6" class="node"><title>null1</title>
<polygon fill="lightgrey" stroke="none" points="373,-196 319,-196 319,-160 373,-160 373,-196"/>
<text text-anchor="middle" x="346" y="-174.3" font-family="'/usr/share/fonts/truetype/wqy/wqy-microhei.ttc'" font-size="14.00">NULL</text>
</g>
<!-- bucket&#45;&gt;null1 -->
<g id="edge3" class="edge"><title>bucket:table1&#45;&gt;null1</title>
<path fill="none" stroke="black" stroke-width="2" d="M226,-165C253.88,-165 285.217,-168.57 308.733,-171.968"/>
<polygon fill="black" stroke="black" stroke-width="2" points="308.213,-175.429 318.622,-173.453 309.253,-168.507 308.213,-175.429"/>
</g>
</g>
</svg>
