<?xml version="1.0" encoding="UTF-8" standalone="no"?>
<!DOCTYPE svg PUBLIC "-//W3C//DTD SVG 1.1//EN"
 "http://www.w3.org/Graphics/SVG/1.1/DTD/svg11.dtd">
<!-- Generated by graphviz version 2.36.0 (20140111.2315)
 -->
<!-- Title: redis_hash Pages: 1 -->
<svg width="405pt" height="192pt"
 viewBox="0.00 0.00 405.00 192.00" xmlns="http://www.w3.org/2000/svg" xmlns:xlink="http://www.w3.org/1999/xlink">
<g id="graph0" class="graph" transform="scale(1 1) rotate(0) translate(4 188)">
<title>redis_hash</title>
<polygon fill="white" stroke="none" points="-4,4 -4,-188 401,-188 401,4 -4,4"/>
<!-- REDIS_HASH -->
<g id="node1" class="node"><title>REDIS_HASH</title>
<polygon fill="#95bbe3" stroke="none" points="260.25,-184 153.75,-184 153.75,-146 260.25,-146 260.25,-184"/>
<text text-anchor="middle" x="207" y="-168.8" font-family="'/usr/share/fonts/truetype/wqy/wqy-microhei.ttc'" font-size="14.00">哈希表</text>
<text text-anchor="middle" x="207" y="-153.8" font-family="'/usr/share/fonts/truetype/wqy/wqy-microhei.ttc'" font-size="14.00">REDIS_HASH</text>
</g>
<!-- REDIS_ENCODING_ZIPLIST -->
<g id="node2" class="node"><title>REDIS_ENCODING_ZIPLIST</title>
<polygon fill="#fadcad" stroke="none" points="206.25,-110 -0.25,-110 -0.25,-72 206.25,-72 206.25,-110"/>
<text text-anchor="middle" x="103" y="-94.8" font-family="'/usr/share/fonts/truetype/wqy/wqy-microhei.ttc'" font-size="14.00">压缩列表</text>
<text text-anchor="middle" x="103" y="-79.8" font-family="'/usr/share/fonts/truetype/wqy/wqy-microhei.ttc'" font-size="14.00">REDIS_ENCODING_ZIPLIST</text>
</g>
<!-- REDIS_HASH&#45;&gt;REDIS_ENCODING_ZIPLIST -->
<g id="edge1" class="edge"><title>REDIS_HASH&#45;&gt;REDIS_ENCODING_ZIPLIST</title>
<path fill="none" stroke="black" stroke-width="2" d="M180.756,-145.831C167.701,-136.793 151.747,-125.748 137.695,-116.02"/>
<polygon fill="black" stroke="black" stroke-width="2" points="139.449,-112.977 129.235,-110.163 135.465,-118.733 139.449,-112.977"/>
</g>
<!-- REDIS_ENCODING_HT -->
<g id="node3" class="node"><title>REDIS_ENCODING_HT</title>
<polygon fill="#fadcad" stroke="none" points="397.25,-110 224.75,-110 224.75,-72 397.25,-72 397.25,-110"/>
<text text-anchor="middle" x="311" y="-94.8" font-family="'/usr/share/fonts/truetype/wqy/wqy-microhei.ttc'" font-size="14.00">字典</text>
<text text-anchor="middle" x="311" y="-79.8" font-family="'/usr/share/fonts/truetype/wqy/wqy-microhei.ttc'" font-size="14.00">REDIS_ENCODING_HT</text>
</g>
<!-- REDIS_HASH&#45;&gt;REDIS_ENCODING_HT -->
<g id="edge2" class="edge"><title>REDIS_HASH&#45;&gt;REDIS_ENCODING_HT</title>
<path fill="none" stroke="black" stroke-width="2" d="M233.244,-145.831C246.299,-136.793 262.253,-125.748 276.305,-116.02"/>
<polygon fill="black" stroke="black" stroke-width="2" points="278.535,-118.733 284.765,-110.163 274.551,-112.977 278.535,-118.733"/>
</g>
<!-- ziplist -->
<g id="node4" class="node"><title>ziplist</title>
<polygon fill="lightgrey" stroke="none" points="131.25,-36 74.75,-36 74.75,-0 131.25,-0 131.25,-36"/>
<text text-anchor="middle" x="103" y="-14.3" font-family="'/usr/share/fonts/truetype/wqy/wqy-microhei.ttc'" font-size="14.00">ziplist</text>
</g>
<!-- REDIS_ENCODING_ZIPLIST&#45;&gt;ziplist -->
<g id="edge3" class="edge"><title>REDIS_ENCODING_ZIPLIST&#45;&gt;ziplist</title>
<path fill="none" stroke="black" stroke-width="2" d="M103,-71.7157C103,-63.9733 103,-54.7894 103,-46.2737"/>
<polygon fill="black" stroke="black" stroke-width="2" points="106.5,-46.0034 103,-36.0034 99.5001,-46.0035 106.5,-46.0034"/>
</g>
<!-- dict -->
<g id="node5" class="node"><title>dict</title>
<polygon fill="lightgrey" stroke="none" points="352.5,-36 269.5,-36 269.5,-0 352.5,-0 352.5,-36"/>
<text text-anchor="middle" x="311" y="-14.3" font-family="'/usr/share/fonts/truetype/wqy/wqy-microhei.ttc'" font-size="14.00">dict.h/dict</text>
</g>
<!-- REDIS_ENCODING_HT&#45;&gt;dict -->
<g id="edge4" class="edge"><title>REDIS_ENCODING_HT&#45;&gt;dict</title>
<path fill="none" stroke="black" stroke-width="2" d="M311,-71.7157C311,-63.9733 311,-54.7894 311,-46.2737"/>
<polygon fill="black" stroke="black" stroke-width="2" points="314.5,-46.0034 311,-36.0034 307.5,-46.0035 314.5,-46.0034"/>
</g>
</g>
</svg>
