<?xml version="1.0" encoding="UTF-8" standalone="no"?>
<!DOCTYPE svg PUBLIC "-//W3C//DTD SVG 1.1//EN"
 "http://www.w3.org/Graphics/SVG/1.1/DTD/svg11.dtd">
<!-- Generated by graphviz version 2.36.0 (20140111.2315)
 -->
<!-- Title: db Pages: 1 -->
<svg width="360pt" height="211pt"
 viewBox="0.00 0.00 360.00 211.00" xmlns="http://www.w3.org/2000/svg" xmlns:xlink="http://www.w3.org/1999/xlink">
<g id="graph0" class="graph" transform="scale(1 1) rotate(0) translate(4 207)">
<title>db</title>
<polygon fill="white" stroke="none" points="-4,4 -4,-207 356,-207 356,4 -4,4"/>
<!-- dict -->
<g id="node1" class="node"><title>dict</title>
<polygon fill="#a8e270" stroke="black" points="0.5,-43 0.5,-203 103.5,-203 103.5,-43 0.5,-43"/>
<text text-anchor="middle" x="52" y="-187.8" font-family="'/usr/share/fonts/truetype/wqy/wqy-microhei.ttc'" font-size="14.00">dict</text>
<polyline fill="none" stroke="black" points="0.5,-180 103.5,-180 "/>
<text text-anchor="middle" x="52" y="-164.8" font-family="'/usr/share/fonts/truetype/wqy/wqy-microhei.ttc'" font-size="14.00">StringObject</text>
<text text-anchor="middle" x="52" y="-149.8" font-family="'/usr/share/fonts/truetype/wqy/wqy-microhei.ttc'" font-size="14.00"> &quot;number&quot;</text>
<polyline fill="none" stroke="black" points="0.5,-142 103.5,-142 "/>
<text text-anchor="middle" x="52" y="-126.8" font-family="'/usr/share/fonts/truetype/wqy/wqy-microhei.ttc'" font-size="14.00">NULL</text>
<polyline fill="none" stroke="black" points="0.5,-119 103.5,-119 "/>
<text text-anchor="middle" x="52" y="-103.8" font-family="'/usr/share/fonts/truetype/wqy/wqy-microhei.ttc'" font-size="14.00">StringObject</text>
<text text-anchor="middle" x="52" y="-88.8" font-family="'/usr/share/fonts/truetype/wqy/wqy-microhei.ttc'" font-size="14.00"> &quot;book&quot;</text>
<polyline fill="none" stroke="black" points="0.5,-81 103.5,-81 "/>
<text text-anchor="middle" x="52" y="-65.8" font-family="'/usr/share/fonts/truetype/wqy/wqy-microhei.ttc'" font-size="14.00">StringObject</text>
<text text-anchor="middle" x="52" y="-50.8" font-family="'/usr/share/fonts/truetype/wqy/wqy-microhei.ttc'" font-size="14.00"> &quot;message&quot;</text>
</g>
<!-- number -->
<g id="node2" class="node"><title>number</title>
<polygon fill="lightgrey" stroke="black" points="194.5,-130 194.5,-176 297.5,-176 297.5,-130 194.5,-130"/>
<text text-anchor="middle" x="246" y="-160.8" font-family="'/usr/share/fonts/truetype/wqy/wqy-microhei.ttc'" font-size="14.00">StringObject</text>
<polyline fill="none" stroke="black" points="194.5,-153 297.5,-153 "/>
<text text-anchor="middle" x="246" y="-137.8" font-family="'/usr/share/fonts/truetype/wqy/wqy-microhei.ttc'" font-size="14.00">10086</text>
</g>
<!-- dict&#45;&gt;number -->
<g id="edge1" class="edge"><title>dict:number&#45;&gt;number:head</title>
<path fill="none" stroke="black" stroke-width="2" d="M104,-161C139.883,-161 151.304,-164.285 182.6,-164.901"/>
<polygon fill="black" stroke="black" stroke-width="2" points="182.967,-168.405 193,-165 183.034,-161.405 182.967,-168.405"/>
</g>
<!-- book -->
<g id="node3" class="node"><title>book</title>
<polygon fill="lightgrey" stroke="black" points="140.5,-65 140.5,-111 351.5,-111 351.5,-65 140.5,-65"/>
<text text-anchor="middle" x="246" y="-95.8" font-family="'/usr/share/fonts/truetype/wqy/wqy-microhei.ttc'" font-size="14.00">StringObject</text>
<polyline fill="none" stroke="black" points="140.5,-88 351.5,-88 "/>
<text text-anchor="middle" x="246" y="-72.8" font-family="'/usr/share/fonts/truetype/wqy/wqy-microhei.ttc'" font-size="14.00">&quot;Mastering C++ in 21 days&quot;</text>
</g>
<!-- dict&#45;&gt;book -->
<g id="edge2" class="edge"><title>dict:book&#45;&gt;book:head</title>
<path fill="none" stroke="black" stroke-width="2" d="M104,-100C116,-100 121.25,-100 129.875,-100"/>
<polygon fill="black" stroke="black" stroke-width="2" points="130,-103.5 140,-100 130,-96.5001 130,-103.5"/>
</g>
<!-- message -->
<g id="node4" class="node"><title>message</title>
<polygon fill="lightgrey" stroke="black" points="194.5,-0 194.5,-46 297.5,-46 297.5,-0 194.5,-0"/>
<text text-anchor="middle" x="246" y="-30.8" font-family="'/usr/share/fonts/truetype/wqy/wqy-microhei.ttc'" font-size="14.00">StringObject</text>
<polyline fill="none" stroke="black" points="194.5,-23 297.5,-23 "/>
<text text-anchor="middle" x="246" y="-7.8" font-family="'/usr/share/fonts/truetype/wqy/wqy-microhei.ttc'" font-size="14.00">&quot;hello moto&quot;</text>
</g>
<!-- dict&#45;&gt;message -->
<g id="edge3" class="edge"><title>dict:message&#45;&gt;message:head</title>
<path fill="none" stroke="black" stroke-width="2" d="M104,-62C141.622,-62 150.245,-39.6336 182.656,-35.6147"/>
<polygon fill="black" stroke="black" stroke-width="2" points="183.225,-39.0871 193,-35 182.81,-32.0994 183.225,-39.0871"/>
</g>
</g>
</svg>
