<?xml version="1.0" encoding="UTF-8" standalone="no"?>
<!DOCTYPE svg PUBLIC "-//W3C//DTD SVG 1.1//EN"
 "http://www.w3.org/Graphics/SVG/1.1/DTD/svg11.dtd">
<!-- Generated by graphviz version 2.36.0 (20140111.2315)
 -->
<!-- Title: redis_list Pages: 1 -->
<svg width="469pt" height="192pt"
 viewBox="0.00 0.00 469.00 192.00" xmlns="http://www.w3.org/2000/svg" xmlns:xlink="http://www.w3.org/1999/xlink">
<g id="graph0" class="graph" transform="scale(1 1) rotate(0) translate(4 188)">
<title>redis_list</title>
<polygon fill="white" stroke="none" points="-4,4 -4,-188 465,-188 465,4 -4,4"/>
<!-- REDIS_LIST -->
<g id="node1" class="node"><title>REDIS_LIST</title>
<polygon fill="#95bbe3" stroke="none" points="271.5,-184 174.5,-184 174.5,-146 271.5,-146 271.5,-184"/>
<text text-anchor="middle" x="223" y="-168.8" font-family="'/usr/share/fonts/truetype/wqy/wqy-microhei.ttc'" font-size="14.00">列表</text>
<text text-anchor="middle" x="223" y="-153.8" font-family="'/usr/share/fonts/truetype/wqy/wqy-microhei.ttc'" font-size="14.00">REDIS_LIST</text>
</g>
<!-- REDIS_ENCODING_ZIPLIST -->
<g id="node2" class="node"><title>REDIS_ENCODING_ZIPLIST</title>
<polygon fill="#fadcad" stroke="none" points="206.25,-110 -0.25,-110 -0.25,-72 206.25,-72 206.25,-110"/>
<text text-anchor="middle" x="103" y="-94.8" font-family="'/usr/share/fonts/truetype/wqy/wqy-microhei.ttc'" font-size="14.00">压缩列表</text>
<text text-anchor="middle" x="103" y="-79.8" font-family="'/usr/share/fonts/truetype/wqy/wqy-microhei.ttc'" font-size="14.00">REDIS_ENCODING_ZIPLIST</text>
</g>
<!-- REDIS_LIST&#45;&gt;REDIS_ENCODING_ZIPLIST -->
<g id="edge2" class="edge"><title>REDIS_LIST&#45;&gt;REDIS_ENCODING_ZIPLIST</title>
<path fill="none" stroke="black" stroke-width="2" d="M192.719,-145.831C177.37,-136.622 158.55,-125.33 142.118,-115.471"/>
<polygon fill="black" stroke="black" stroke-width="2" points="143.647,-112.307 133.271,-110.163 140.046,-118.309 143.647,-112.307"/>
</g>
<!-- REDIS_ENCODING_LINKEDLIST -->
<g id="node3" class="node"><title>REDIS_ENCODING_LINKEDLIST</title>
<polygon fill="#fadcad" stroke="none" points="461,-110 225,-110 225,-72 461,-72 461,-110"/>
<text text-anchor="middle" x="343" y="-94.8" font-family="'/usr/share/fonts/truetype/wqy/wqy-microhei.ttc'" font-size="14.00">双端链表</text>
<text text-anchor="middle" x="343" y="-79.8" font-family="'/usr/share/fonts/truetype/wqy/wqy-microhei.ttc'" font-size="14.00">REDIS_ENCODING_LINKEDLIST</text>
</g>
<!-- REDIS_LIST&#45;&gt;REDIS_ENCODING_LINKEDLIST -->
<g id="edge1" class="edge"><title>REDIS_LIST&#45;&gt;REDIS_ENCODING_LINKEDLIST</title>
<path fill="none" stroke="black" stroke-width="2" d="M253.281,-145.831C268.63,-136.622 287.45,-125.33 303.882,-115.471"/>
<polygon fill="black" stroke="black" stroke-width="2" points="305.954,-118.309 312.729,-110.163 302.353,-112.307 305.954,-118.309"/>
</g>
<!-- ziplist -->
<g id="node5" class="node"><title>ziplist</title>
<polygon fill="lightgrey" stroke="none" points="131.25,-36 74.75,-36 74.75,-0 131.25,-0 131.25,-36"/>
<text text-anchor="middle" x="103" y="-14.3" font-family="'/usr/share/fonts/truetype/wqy/wqy-microhei.ttc'" font-size="14.00">ziplist</text>
</g>
<!-- REDIS_ENCODING_ZIPLIST&#45;&gt;ziplist -->
<g id="edge4" class="edge"><title>REDIS_ENCODING_ZIPLIST&#45;&gt;ziplist</title>
<path fill="none" stroke="black" stroke-width="2" d="M103,-71.7157C103,-63.9733 103,-54.7894 103,-46.2737"/>
<polygon fill="black" stroke="black" stroke-width="2" points="106.5,-46.0034 103,-36.0034 99.5001,-46.0035 106.5,-46.0034"/>
</g>
<!-- list -->
<g id="node4" class="node"><title>list</title>
<polygon fill="lightgrey" stroke="none" points="389,-36 297,-36 297,-0 389,-0 389,-36"/>
<text text-anchor="middle" x="343" y="-14.3" font-family="'/usr/share/fonts/truetype/wqy/wqy-microhei.ttc'" font-size="14.00">adlist.h/list</text>
</g>
<!-- REDIS_ENCODING_LINKEDLIST&#45;&gt;list -->
<g id="edge3" class="edge"><title>REDIS_ENCODING_LINKEDLIST&#45;&gt;list</title>
<path fill="none" stroke="black" stroke-width="2" d="M343,-71.7157C343,-63.9733 343,-54.7894 343,-46.2737"/>
<polygon fill="black" stroke="black" stroke-width="2" points="346.5,-46.0034 343,-36.0034 339.5,-46.0035 346.5,-46.0034"/>
</g>
</g>
</svg>
