<?xml version="1.0" encoding="UTF-8" standalone="no"?>
<!DOCTYPE svg PUBLIC "-//W3C//DTD SVG 1.1//EN"
 "http://www.w3.org/Graphics/SVG/1.1/DTD/svg11.dtd">
<!-- Generated by graphviz version 2.36.0 (20140111.2315)
 -->
<!-- Title: redis_zset Pages: 1 -->
<svg width="462pt" height="264pt"
 viewBox="0.00 0.00 462.00 264.00" xmlns="http://www.w3.org/2000/svg" xmlns:xlink="http://www.w3.org/1999/xlink">
<g id="graph0" class="graph" transform="scale(1 1) rotate(0) translate(4 260)">
<title>redis_zset</title>
<polygon fill="white" stroke="none" points="-4,4 -4,-260 458,-260 458,4 -4,4"/>
<!-- REDIS_ZSET -->
<g id="node1" class="node"><title>REDIS_ZSET</title>
<polygon fill="#95bbe3" stroke="none" points="269,-256 165,-256 165,-218 269,-218 269,-256"/>
<text text-anchor="middle" x="217" y="-240.8" font-family="'/usr/share/fonts/truetype/wqy/wqy-microhei.ttc'" font-size="14.00">有序集合</text>
<text text-anchor="middle" x="217" y="-225.8" font-family="'/usr/share/fonts/truetype/wqy/wqy-microhei.ttc'" font-size="14.00">REDIS_ZSET</text>
</g>
<!-- REDIS_ENCODING_ZIPLIST -->
<g id="node2" class="node"><title>REDIS_ENCODING_ZIPLIST</title>
<polygon fill="#fadcad" stroke="none" points="206.25,-182 -0.25,-182 -0.25,-144 206.25,-144 206.25,-182"/>
<text text-anchor="middle" x="103" y="-166.8" font-family="'/usr/share/fonts/truetype/wqy/wqy-microhei.ttc'" font-size="14.00">ziplist</text>
<text text-anchor="middle" x="103" y="-151.8" font-family="'/usr/share/fonts/truetype/wqy/wqy-microhei.ttc'" font-size="14.00">REDIS_ENCODING_ZIPLIST</text>
</g>
<!-- REDIS_ZSET&#45;&gt;REDIS_ENCODING_ZIPLIST -->
<g id="edge1" class="edge"><title>REDIS_ZSET&#45;&gt;REDIS_ENCODING_ZIPLIST</title>
<path fill="none" stroke="black" stroke-width="2" d="M188.233,-217.831C173.787,-208.707 156.103,-197.539 140.596,-187.745"/>
<polygon fill="black" stroke="black" stroke-width="2" points="142.082,-184.544 131.758,-182.163 138.344,-190.462 142.082,-184.544"/>
</g>
<!-- REDIS_ENCODING_SKIPLIST -->
<g id="node3" class="node"><title>REDIS_ENCODING_SKIPLIST</title>
<polygon fill="#fadcad" stroke="none" points="439.25,-182 224.75,-182 224.75,-144 439.25,-144 439.25,-182"/>
<text text-anchor="middle" x="332" y="-166.8" font-family="'/usr/share/fonts/truetype/wqy/wqy-microhei.ttc'" font-size="14.00">跳跃表</text>
<text text-anchor="middle" x="332" y="-151.8" font-family="'/usr/share/fonts/truetype/wqy/wqy-microhei.ttc'" font-size="14.00">REDIS_ENCODING_SKIPLIST</text>
</g>
<!-- REDIS_ZSET&#45;&gt;REDIS_ENCODING_SKIPLIST -->
<g id="edge2" class="edge"><title>REDIS_ZSET&#45;&gt;REDIS_ENCODING_SKIPLIST</title>
<path fill="none" stroke="black" stroke-width="2" d="M246.019,-217.831C260.729,-208.622 278.764,-197.33 294.512,-187.471"/>
<polygon fill="black" stroke="black" stroke-width="2" points="296.371,-190.436 302.99,-182.163 292.657,-184.503 296.371,-190.436"/>
</g>
<!-- ziplist -->
<g id="node4" class="node"><title>ziplist</title>
<polygon fill="lightgrey" stroke="none" points="131.25,-108 74.75,-108 74.75,-72 131.25,-72 131.25,-108"/>
<text text-anchor="middle" x="103" y="-86.3" font-family="'/usr/share/fonts/truetype/wqy/wqy-microhei.ttc'" font-size="14.00">ziplist</text>
</g>
<!-- REDIS_ENCODING_ZIPLIST&#45;&gt;ziplist -->
<g id="edge3" class="edge"><title>REDIS_ENCODING_ZIPLIST&#45;&gt;ziplist</title>
<path fill="none" stroke="black" stroke-width="2" d="M103,-143.716C103,-135.973 103,-126.789 103,-118.274"/>
<polygon fill="black" stroke="black" stroke-width="2" points="106.5,-118.003 103,-108.003 99.5001,-118.003 106.5,-118.003"/>
</g>
<!-- zset -->
<g id="node5" class="node"><title>zset</title>
<polygon fill="lightgrey" stroke="none" points="380.25,-108 283.75,-108 283.75,-72 380.25,-72 380.25,-108"/>
<text text-anchor="middle" x="332" y="-86.3" font-family="'/usr/share/fonts/truetype/wqy/wqy-microhei.ttc'" font-size="14.00">redis.h/zset</text>
</g>
<!-- REDIS_ENCODING_SKIPLIST&#45;&gt;zset -->
<g id="edge4" class="edge"><title>REDIS_ENCODING_SKIPLIST&#45;&gt;zset</title>
<path fill="none" stroke="black" stroke-width="2" d="M332,-143.716C332,-135.973 332,-126.789 332,-118.274"/>
<polygon fill="black" stroke="black" stroke-width="2" points="335.5,-118.003 332,-108.003 328.5,-118.003 335.5,-118.003"/>
</g>
<!-- dict -->
<g id="node6" class="node"><title>dict</title>
<polygon fill="lightgrey" stroke="none" points="312.5,-36 229.5,-36 229.5,-0 312.5,-0 312.5,-36"/>
<text text-anchor="middle" x="271" y="-14.3" font-family="'/usr/share/fonts/truetype/wqy/wqy-microhei.ttc'" font-size="14.00">dict.h/dict</text>
</g>
<!-- zset&#45;&gt;dict -->
<g id="edge5" class="edge"><title>zset&#45;&gt;dict</title>
<path fill="none" stroke="black" stroke-width="2" d="M316.921,-71.6966C309.608,-63.3046 300.69,-53.0705 292.665,-43.8613"/>
<polygon fill="black" stroke="black" stroke-width="2" points="295.114,-41.344 285.905,-36.1043 289.836,-45.9429 295.114,-41.344"/>
</g>
<!-- zskiplist -->
<g id="node7" class="node"><title>zskiplist</title>
<polygon fill="lightgrey" stroke="none" points="454.25,-36 331.75,-36 331.75,-0 454.25,-0 454.25,-36"/>
<text text-anchor="middle" x="393" y="-14.3" font-family="'/usr/share/fonts/truetype/wqy/wqy-microhei.ttc'" font-size="14.00">redis.h/zskiplist</text>
</g>
<!-- zset&#45;&gt;zskiplist -->
<g id="edge6" class="edge"><title>zset&#45;&gt;zskiplist</title>
<path fill="none" stroke="black" stroke-width="2" d="M347.079,-71.6966C354.392,-63.3046 363.31,-53.0705 371.335,-43.8613"/>
<polygon fill="black" stroke="black" stroke-width="2" points="374.164,-45.9429 378.095,-36.1043 368.886,-41.344 374.164,-45.9429"/>
</g>
</g>
</svg>
