<?xml version="1.0" encoding="UTF-8" standalone="no"?>
<!DOCTYPE svg PUBLIC "-//W3C//DTD SVG 1.1//EN"
 "http://www.w3.org/Graphics/SVG/1.1/DTD/svg11.dtd">
<!-- Generated by graphviz version 2.36.0 (20140111.2315)
 -->
<!-- Title: redis_set Pages: 1 -->
<svg width="403pt" height="192pt"
 viewBox="0.00 0.00 403.00 192.00" xmlns="http://www.w3.org/2000/svg" xmlns:xlink="http://www.w3.org/1999/xlink">
<g id="graph0" class="graph" transform="scale(1 1) rotate(0) translate(4 188)">
<title>redis_set</title>
<polygon fill="white" stroke="none" points="-4,4 -4,-188 399,-188 399,4 -4,4"/>
<!-- REDIS_SET -->
<g id="node1" class="node"><title>REDIS_SET</title>
<polygon fill="#95bbe3" stroke="none" points="252.25,-184 157.75,-184 157.75,-146 252.25,-146 252.25,-184"/>
<text text-anchor="middle" x="205" y="-168.8" font-family="'/usr/share/fonts/truetype/wqy/wqy-microhei.ttc'" font-size="14.00">集合</text>
<text text-anchor="middle" x="205" y="-153.8" font-family="'/usr/share/fonts/truetype/wqy/wqy-microhei.ttc'" font-size="14.00">REDIS_SET</text>
</g>
<!-- REDIS_ENCODING_INTSET -->
<g id="node2" class="node"><title>REDIS_ENCODING_INTSET</title>
<polygon fill="#fadcad" stroke="none" points="203.5,-110 0.5,-110 0.5,-72 203.5,-72 203.5,-110"/>
<text text-anchor="middle" x="102" y="-94.8" font-family="'/usr/share/fonts/truetype/wqy/wqy-microhei.ttc'" font-size="14.00">intset</text>
<text text-anchor="middle" x="102" y="-79.8" font-family="'/usr/share/fonts/truetype/wqy/wqy-microhei.ttc'" font-size="14.00">REDIS_ENCODING_INTSET</text>
</g>
<!-- REDIS_SET&#45;&gt;REDIS_ENCODING_INTSET -->
<g id="edge1" class="edge"><title>REDIS_SET&#45;&gt;REDIS_ENCODING_INTSET</title>
<path fill="none" stroke="black" stroke-width="2" d="M179.009,-145.831C166.078,-136.793 150.278,-125.748 136.362,-116.02"/>
<polygon fill="black" stroke="black" stroke-width="2" points="138.184,-113.024 127.983,-110.163 134.174,-118.761 138.184,-113.024"/>
</g>
<!-- REDIS_ENCODING_HT -->
<g id="node3" class="node"><title>REDIS_ENCODING_HT</title>
<polygon fill="#fadcad" stroke="none" points="395.25,-110 222.75,-110 222.75,-72 395.25,-72 395.25,-110"/>
<text text-anchor="middle" x="309" y="-94.8" font-family="'/usr/share/fonts/truetype/wqy/wqy-microhei.ttc'" font-size="14.00">字典</text>
<text text-anchor="middle" x="309" y="-79.8" font-family="'/usr/share/fonts/truetype/wqy/wqy-microhei.ttc'" font-size="14.00">REDIS_ENCODING_HT</text>
</g>
<!-- REDIS_SET&#45;&gt;REDIS_ENCODING_HT -->
<g id="edge2" class="edge"><title>REDIS_SET&#45;&gt;REDIS_ENCODING_HT</title>
<path fill="none" stroke="black" stroke-width="2" d="M231.244,-145.831C244.299,-136.793 260.253,-125.748 274.305,-116.02"/>
<polygon fill="black" stroke="black" stroke-width="2" points="276.535,-118.733 282.765,-110.163 272.551,-112.977 276.535,-118.733"/>
</g>
<!-- intset -->
<g id="node4" class="node"><title>intset</title>
<polygon fill="lightgrey" stroke="none" points="159,-36 45,-36 45,-0 159,-0 159,-36"/>
<text text-anchor="middle" x="102" y="-14.3" font-family="'/usr/share/fonts/truetype/wqy/wqy-microhei.ttc'" font-size="14.00">intset.h/intset</text>
</g>
<!-- REDIS_ENCODING_INTSET&#45;&gt;intset -->
<g id="edge3" class="edge"><title>REDIS_ENCODING_INTSET&#45;&gt;intset</title>
<path fill="none" stroke="black" stroke-width="2" d="M102,-71.7157C102,-63.9733 102,-54.7894 102,-46.2737"/>
<polygon fill="black" stroke="black" stroke-width="2" points="105.5,-46.0034 102,-36.0034 98.5001,-46.0035 105.5,-46.0034"/>
</g>
<!-- dict -->
<g id="node5" class="node"><title>dict</title>
<polygon fill="lightgrey" stroke="none" points="350.5,-36 267.5,-36 267.5,-0 350.5,-0 350.5,-36"/>
<text text-anchor="middle" x="309" y="-14.3" font-family="'/usr/share/fonts/truetype/wqy/wqy-microhei.ttc'" font-size="14.00">dict.h/dict</text>
</g>
<!-- REDIS_ENCODING_HT&#45;&gt;dict -->
<g id="edge4" class="edge"><title>REDIS_ENCODING_HT&#45;&gt;dict</title>
<path fill="none" stroke="black" stroke-width="2" d="M309,-71.7157C309,-63.9733 309,-54.7894 309,-46.2737"/>
<polygon fill="black" stroke="black" stroke-width="2" points="312.5,-46.0034 309,-36.0034 305.5,-46.0035 312.5,-46.0034"/>
</g>
</g>
</svg>
